<?xml version="1.0" encoding="UTF-8" standalone="no"?>
<!DOCTYPE svg PUBLIC "-//W3C//DTD SVG 1.1//EN" "http://www.w3.org/Graphics/SVG/1.1/DTD/svg11.dtd">
<svg width="100%" height="100%" viewBox="0 0 2000 2000" version="1.1" xmlns="http://www.w3.org/2000/svg" xmlns:xlink="http://www.w3.org/1999/xlink" xml:space="preserve" xmlns:serif="http://www.serif.com/" style="fill-rule:evenodd;clip-rule:evenodd;stroke-linecap:round;stroke-linejoin:round;stroke-miterlimit:1.5;">
    <path d="M679.265,440.451C679.265,262.477 823.757,117.984 1001.73,117.984C1179.71,117.984 1324.2,262.477 1324.2,440.451L1254.57,440.451C1235.71,440.451 1220.4,455.761 1220.4,474.62C1220.4,493.478 1235.71,508.788 1254.57,508.788L1324.2,508.788L1324.2,584.546L1254.57,584.546C1235.71,584.546 1220.4,599.856 1220.4,618.715C1220.4,637.573 1235.71,652.883 1254.57,652.883L1324.2,652.883L1324.2,728.641L1254.57,728.641C1235.71,728.641 1220.4,743.951 1220.4,762.81C1220.4,781.668 1235.71,796.978 1254.57,796.978L1324.2,796.978C1324.2,974.953 1179.71,1119.44 1001.73,1119.44C823.757,1119.44 679.265,974.953 679.265,796.978L825.433,796.978C844.292,796.978 859.602,781.668 859.602,762.81C859.602,743.951 844.292,728.641 825.433,728.641L679.265,728.641L679.265,652.883L825.433,652.883C844.292,652.883 859.602,637.573 859.602,618.715C859.602,599.856 844.292,584.546 825.433,584.546L679.265,584.546L679.265,508.788L825.433,508.788C844.292,508.788 859.602,493.478 859.602,474.62C859.602,455.761 844.292,440.451 825.433,440.451L679.265,440.451Z" style="fill:url(#_Linear1);"/>
    <path d="M1404.81,695.972L1404.81,796.675C1404.81,1020.1 1223.42,1201.49 1000,1201.49C776.577,1201.49 595.186,1020.1 595.186,796.675L595.186,695.972" style="fill:none;stroke:black;stroke-width:62.5px;"/>
    <path d="M1000,1201.49C919.956,1350.87 900.47,1391.96 743.499,1390.03" style="fill:none;stroke:black;stroke-width:50px;"/>
    <path d="M1000,1201.49C1057.01,1377.62 1204.28,1606.49 1429.28,1575.78" style="fill:none;stroke:black;stroke-width:62.5px;"/>
    <path d="M1000,1212.62C969.821,1466.51 954.883,1574.52 759.697,1700.58" style="fill:none;stroke:black;stroke-width:70.83px;"/>

    <circle cx="679.265" cy="1752.4" r="180.905" style="fill:url(#_Linear2);stroke:black;stroke-width:41.67px;">
        <animate attributeName="r" values="180.905; 100; 180.905" dur="7s"  begin="1s" repeatCount="indefinite"/>
    </circle>

    <circle cx="663.85" cy="1369.38" r="89.649" style="fill:url(#_Linear3);stroke:black;stroke-width:33.33px;">
        <animate attributeName="r" values="89.649; 50; 89.649" dur="5.5s"  begin="2s" repeatCount="indefinite"/>
    </circle>

    <circle cx="1583.11" cy="1578.57" r="193.832" style="fill:url(#_Linear4);stroke:black;stroke-width:50px;">
        <animate attributeName="r" values="193.832; 120; 193.832" dur="8.5s" repeatCount="indefinite"/>
    </circle>

    <defs>
        <linearGradient id="_Linear1" x1="0" y1="0" x2="1" y2="0" gradientUnits="userSpaceOnUse" gradientTransform="matrix(580.7,-1049.45,1629.59,901.718,743.499,1150.98)"><stop offset="0" style="stop-color:rgb(94,64,191);stop-opacity:1"/><stop offset="1" style="stop-color:rgb(143,38,217);stop-opacity:1"/></linearGradient>
        <linearGradient id="_Linear2" x1="0" y1="0" x2="1" y2="0" gradientUnits="userSpaceOnUse" gradientTransform="matrix(298.414,-321.811,321.811,298.414,541.756,1913.31)"><stop offset="0" style="stop-color:rgb(94,64,191);stop-opacity:1"/><stop offset="1" style="stop-color:rgb(143,38,217);stop-opacity:1"/></linearGradient>
        <linearGradient id="_Linear3" x1="0" y1="0" x2="1" y2="0" gradientUnits="userSpaceOnUse" gradientTransform="matrix(166.262,-179.298,179.298,166.262,577.237,1459.03)"><stop offset="0" style="stop-color:rgb(94,64,191);stop-opacity:1"/><stop offset="1" style="stop-color:rgb(143,38,217);stop-opacity:1"/></linearGradient>
        <linearGradient id="_Linear4" x1="0" y1="0" x2="1" y2="0" gradientUnits="userSpaceOnUse" gradientTransform="matrix(322.388,-347.664,347.664,322.388,1454.55,1752.4)"><stop offset="0" style="stop-color:rgb(94,64,191);stop-opacity:1"/><stop offset="1" style="stop-color:rgb(143,38,217);stop-opacity:1"/></linearGradient>
    </defs>
</svg>

